<svg width="18" height="18" viewBox="0 0 18 18" fill="none" xmlns="http://www.w3.org/2000/svg">
<path d="M4.875 13.4458C5.05833 13.4458 5.21875 13.3771 5.35625 13.2396C5.49375 13.1021 5.5625 12.9417 5.5625 12.7583C5.5625 12.575 5.49375 12.4146 5.35625 12.2771C5.21875 12.1396 5.05833 12.0708 4.875 12.0708C4.69167 12.0708 4.53125 12.1396 4.39375 12.2771C4.25625 12.4146 4.1875 12.575 4.1875 12.7583C4.1875 12.9417 4.25625 13.1021 4.39375 13.2396C4.53125 13.3771 4.69167 13.4458 4.875 13.4458ZM4.875 9.6875C5.05833 9.6875 5.21875 9.61875 5.35625 9.48125C5.49375 9.34375 5.5625 9.18333 5.5625 9C5.5625 8.81667 5.49375 8.65625 5.35625 8.51875C5.21875 8.38125 5.05833 8.3125 4.875 8.3125C4.69167 8.3125 4.53125 8.38125 4.39375 8.51875C4.25625 8.65625 4.1875 8.81667 4.1875 9C4.1875 9.18333 4.25625 9.34375 4.39375 9.48125C4.53125 9.61875 4.69167 9.6875 4.875 9.6875ZM4.875 5.92917C5.05833 5.92917 5.21875 5.86042 5.35625 5.72292C5.49375 5.58542 5.5625 5.425 5.5625 5.24167C5.5625 5.05833 5.49375 4.89792 5.35625 4.76042C5.21875 4.62292 5.05833 4.55417 4.875 4.55417C4.69167 4.55417 4.53125 4.62292 4.39375 4.76042C4.25625 4.89792 4.1875 5.05833 4.1875 5.24167C4.1875 5.425 4.25625 5.58542 4.39375 5.72292C4.53125 5.86042 4.69167 5.92917 4.875 5.92917ZM7.9 13.4458H13.4917V12.0708H7.9V13.4458ZM7.9 9.6875H13.4917V8.3125H7.9V9.6875ZM7.9 5.92917H13.4917V4.55417H7.9V5.92917ZM2.125 17.25C1.75833 17.25 1.4375 17.1125 1.1625 16.8375C0.8875 16.5625 0.75 16.2417 0.75 15.875V2.125C0.75 1.75833 0.8875 1.4375 1.1625 1.1625C1.4375 0.8875 1.75833 0.75 2.125 0.75H15.875C16.2417 0.75 16.5625 0.8875 16.8375 1.1625C17.1125 1.4375 17.25 1.75833 17.25 2.125V15.875C17.25 16.2417 17.1125 16.5625 16.8375 16.8375C16.5625 17.1125 16.2417 17.25 15.875 17.25H2.125ZM2.125 15.875H15.875V2.125H2.125V15.875ZM2.125 2.125V15.875V2.125Z" fill="#777E99"/>
</svg>
