<svg width="18" height="20" viewBox="0 0 18 20" fill="none" xmlns="http://www.w3.org/2000/svg">
<path d="M1.66667 19.1663C1.40694 19.1663 1.18924 19.0785 1.01354 18.9028C0.837847 18.7271 0.75 18.5094 0.75 18.2497V13.2309C0.75 12.849 0.883681 12.5243 1.15104 12.257C1.4184 11.9896 1.74306 11.8559 2.125 11.8559H2.74375V7.68509C2.74375 7.30315 2.87743 6.97849 3.14479 6.71113C3.41215 6.44377 3.73681 6.31009 4.11875 6.31009H8.3125V4.84342C8.00694 4.62954 7.77396 4.39655 7.61354 4.14447C7.45313 3.89238 7.37292 3.59065 7.37292 3.23926C7.37292 3.01009 7.41493 2.79238 7.49896 2.58613C7.58299 2.37988 7.70139 2.20037 7.85417 2.04759L9 0.833008L10.1458 2.04759C10.2986 2.20037 10.4208 2.37988 10.5125 2.58613C10.6042 2.79238 10.65 3.01009 10.65 3.23926C10.65 3.59065 10.566 3.89238 10.3979 4.14447C10.2299 4.39655 9.99306 4.62954 9.6875 4.84342V6.31009H13.8813C14.2632 6.31009 14.5878 6.44377 14.8552 6.71113C15.1226 6.97849 15.2563 7.30315 15.2563 7.68509V11.8559H15.875C16.2569 11.8559 16.5816 11.9896 16.849 12.257C17.1163 12.5243 17.25 12.849 17.25 13.2309V18.2497C17.25 18.5094 17.1622 18.7271 16.9865 18.9028C16.8108 19.0785 16.5931 19.1663 16.3333 19.1663H1.66667ZM4.11875 11.8559H13.8813V7.68509H4.11875V11.8559ZM2.125 17.7913H15.875V13.2309H2.125V17.7913ZM4.11875 11.8559H13.8813H4.11875ZM2.125 17.7913H15.875H2.125ZM15.875 11.8559H2.125H15.875Z" fill="#777E99"/>
</svg>
