<svg width="18" height="16" viewBox="0 0 18 16" fill="none" xmlns="http://www.w3.org/2000/svg">
<path d="M6.4875 15.875L5.0625 13.4375L2.23125 12.8563L2.55 10.1L0.75 8L2.55 5.91875L2.23125 3.1625L5.0625 2.58125L6.4875 0.125L9 1.2875L11.5125 0.125L12.9563 2.58125L15.7688 3.1625L15.45 5.91875L17.25 8L15.45 10.1L15.7688 12.8563L12.9563 13.4375L11.5125 15.875L9 14.7125L6.4875 15.875ZM6.99375 14.3937L9 13.55L11.0625 14.3937L12.3188 12.5187L14.5125 11.9562L14.2875 9.725L15.8063 8L14.2875 6.2375L14.5125 4.00625L12.3188 3.48125L11.025 1.60625L9 2.45L6.9375 1.60625L5.68125 3.48125L3.4875 4.00625L3.7125 6.2375L2.19375 8L3.7125 9.725L3.4875 11.9938L5.68125 12.5187L6.99375 14.3937ZM8.19375 10.4937L12.45 6.275L11.6063 5.50625L8.19375 8.88125L6.4125 7.025L5.55 7.86875L8.19375 10.4937Z" fill="#F6B707" fill-opacity="0.6"/>
</svg>
