<svg width="19" height="20" viewBox="0 0 19 20" fill="none" xmlns="http://www.w3.org/2000/svg">
<path d="M3.98125 8.94551L9.02292 0.833008L14.0646 8.94551H3.98125ZM14.1792 19.1663C13.0486 19.1663 12.1014 18.7844 11.3375 18.0205C10.5736 17.2566 10.1917 16.3094 10.1917 15.1788C10.1917 14.0483 10.5736 13.1011 11.3375 12.3372C12.1014 11.5733 13.0486 11.1913 14.1792 11.1913C15.3097 11.1913 16.2569 11.5733 17.0208 12.3372C17.7847 13.1011 18.1667 14.0483 18.1667 15.1788C18.1667 16.3094 17.7847 17.2566 17.0208 18.0205C16.2569 18.7844 15.3097 19.1663 14.1792 19.1663ZM0.75 18.5934V11.6268H7.71667V18.5934H0.75ZM14.1792 17.7913C14.9125 17.7913 15.5313 17.5393 16.0354 17.0351C16.5396 16.5309 16.7917 15.9122 16.7917 15.1788C16.7917 14.4455 16.5396 13.8268 16.0354 13.3226C15.5313 12.8184 14.9125 12.5663 14.1792 12.5663C13.4458 12.5663 12.8271 12.8184 12.3229 13.3226C11.8188 13.8268 11.5667 14.4455 11.5667 15.1788C11.5667 15.9122 11.8188 16.5309 12.3229 17.0351C12.8271 17.5393 13.4458 17.7913 14.1792 17.7913ZM2.125 17.2184H6.34167V13.0018H2.125V17.2184ZM6.45625 7.57051H11.5896L9.02292 3.42259L6.45625 7.57051Z" fill="#777E99"/>
</svg>
