<svg width="16" height="16" viewBox="0 0 16 16" fill="none" xmlns="http://www.w3.org/2000/svg">
<path d="M8 5.58125L11.2437 8.825L10.4375 9.6125L8 7.175L5.5625 9.6125L4.75625 8.825L8 5.58125ZM8 0.500002C6.975 0.500002 6.00625 0.696877 5.09375 1.09063C4.18125 1.48438 3.38437 2.02188 2.70312 2.70313C2.02187 3.38438 1.48437 4.18125 1.09062 5.09375C0.696875 6.00625 0.5 6.975 0.5 8C0.5 9.0375 0.696875 10.0125 1.09062 10.925C1.48437 11.8375 2.02187 12.6313 2.70312 13.3063C3.38437 13.9813 4.18125 14.5156 5.09375 14.9094C6.00625 15.3031 6.975 15.5 8 15.5C9.0375 15.5 10.0125 15.3031 10.925 14.9094C11.8375 14.5156 12.6312 13.9813 13.3062 13.3063C13.9812 12.6313 14.5156 11.8375 14.9094 10.925C15.3031 10.0125 15.5 9.0375 15.5 8C15.5 6.975 15.3031 6.00625 14.9094 5.09375C14.5156 4.18125 13.9812 3.38438 13.3062 2.70313C12.6312 2.02188 11.8375 1.48438 10.925 1.09063C10.0125 0.696877 9.0375 0.500002 8 0.500002ZM8 1.625C9.775 1.625 11.2812 2.24688 12.5187 3.49063C13.7562 4.73438 14.375 6.2375 14.375 8C14.375 9.775 13.7562 11.2813 12.5187 12.5188C11.2812 13.7563 9.775 14.375 8 14.375C6.2375 14.375 4.73437 13.7563 3.49062 12.5188C2.24687 11.2813 1.625 9.775 1.625 8C1.625 6.2375 2.24687 4.73438 3.49062 3.49063C4.73437 2.24688 6.2375 1.625 8 1.625Z" fill="white"/>
</svg>
