<svg width="21" height="20" viewBox="0 0 21 20" fill="none" xmlns="http://www.w3.org/2000/svg">
<path d="M9.99992 19.1663C8.70131 19.1663 7.49436 18.9334 6.37909 18.4674C5.26381 18.0014 4.29367 17.3559 3.46867 16.5309C2.64367 15.7059 1.99818 14.7358 1.53221 13.6205C1.06624 12.5052 0.833252 11.2983 0.833252 9.99967C0.833252 8.71634 1.06624 7.51704 1.53221 6.40176C1.99818 5.28648 2.64367 4.31634 3.46867 3.49134C4.29367 2.66634 5.26381 2.01704 6.37909 1.54342C7.49436 1.06981 8.70131 0.833008 9.99992 0.833008C11.1458 0.833008 12.2152 1.01634 13.2083 1.38301C14.2013 1.74967 15.0951 2.25384 15.8895 2.89551L14.9041 3.88092C14.2319 3.3462 13.4833 2.9337 12.6583 2.64342C11.8333 2.35315 10.9471 2.20801 9.99992 2.20801C7.78464 2.20801 5.93221 2.9528 4.44263 4.44238C2.95304 5.93197 2.20825 7.7844 2.20825 9.99967C2.20825 12.215 2.95304 14.0674 4.44263 15.557C5.93221 17.0466 7.78464 17.7913 9.99992 17.7913C10.5652 17.7913 11.1114 17.7379 11.6385 17.6309C12.1655 17.524 12.6735 17.3636 13.1624 17.1497L14.1937 18.2038C13.5673 18.5094 12.9027 18.7462 12.1999 18.9143C11.4971 19.0823 10.7638 19.1663 9.99992 19.1663ZM16.6458 17.1038V14.3538H13.8958V12.9788H16.6458V10.2288H18.0208V12.9788H20.7708V14.3538H18.0208V17.1038H16.6458ZM8.64784 14.1705L4.86659 10.3663L5.89784 9.33509L8.64784 12.0851L18.1353 2.59759L19.1895 3.62884L8.64784 14.1705Z" fill="#A1A1C1"/>
</svg>
