<svg width="20" height="20" viewBox="0 0 20 20" fill="none" xmlns="http://www.w3.org/2000/svg">
<path d="M11.4437 13.208C11.7034 13.208 11.9249 13.1163 12.1083 12.933C12.2916 12.7497 12.3833 12.5281 12.3833 12.2684C12.3833 12.0087 12.2916 11.7872 12.1083 11.6038C11.9249 11.4205 11.7034 11.3288 11.4437 11.3288C11.1839 11.3288 10.9624 11.4205 10.7791 11.6038C10.5958 11.7872 10.5041 12.0087 10.5041 12.2684C10.5041 12.5281 10.5958 12.7497 10.7791 12.933C10.9624 13.1163 11.1839 13.208 11.4437 13.208ZM10.8708 10.3205H11.9478C11.9784 9.87745 12.0433 9.54898 12.1426 9.33509C12.2419 9.1212 12.4902 8.82328 12.8874 8.44134C13.2999 8.04412 13.5864 7.69655 13.7468 7.39863C13.9072 7.10072 13.9874 6.75315 13.9874 6.35592C13.9874 5.65315 13.7468 5.08023 13.2655 4.63717C12.7843 4.19412 12.1541 3.97259 11.3749 3.97259C10.7944 3.97259 10.2749 4.12919 9.81658 4.44238C9.35825 4.75558 9.02214 5.19481 8.80825 5.76009L9.8395 6.19551C10.0076 5.81356 10.2176 5.52328 10.4697 5.32467C10.7218 5.12606 11.0235 5.02676 11.3749 5.02676C11.8333 5.02676 12.2037 5.15662 12.4864 5.41634C12.769 5.67606 12.9103 6.00453 12.9103 6.40176C12.9103 6.70731 12.8416 6.97467 12.7041 7.20384C12.5666 7.43301 12.3221 7.67745 11.9707 7.93717C11.4819 8.38023 11.1763 8.73544 11.0541 9.0028C10.9319 9.27016 10.8708 9.7094 10.8708 10.3205ZM4.95825 16.4163C4.59158 16.4163 4.27075 16.2788 3.99575 16.0038C3.72075 15.7288 3.58325 15.408 3.58325 15.0413V2.20801C3.58325 1.84134 3.72075 1.52051 3.99575 1.24551C4.27075 0.970508 4.59158 0.833008 4.95825 0.833008H17.7916C18.1582 0.833008 18.4791 0.970508 18.7541 1.24551C19.0291 1.52051 19.1666 1.84134 19.1666 2.20801V15.0413C19.1666 15.408 19.0291 15.7288 18.7541 16.0038C18.4791 16.2788 18.1582 16.4163 17.7916 16.4163H4.95825ZM4.95825 15.0413H17.7916V2.20801H4.95825V15.0413ZM2.20825 19.1663C1.84159 19.1663 1.52075 19.0288 1.24575 18.7538C0.970752 18.4788 0.833252 18.158 0.833252 17.7913V3.58301H2.20825V17.7913H16.4166V19.1663H2.20825ZM4.95825 2.20801V15.0413V2.20801Z" fill="#A1A1C1"/>
</svg>
