<svg width="20" height="20" viewBox="0 0 20 20" fill="none" xmlns="http://www.w3.org/2000/svg">
<path d="M8.28117 11.833H15.4999V10.458H9.65617L8.28117 11.833ZM4.49992 11.833H6.31033L12.0853 6.12676C12.177 6.03509 12.2228 5.92051 12.2228 5.78301C12.2228 5.64551 12.177 5.53092 12.0853 5.43926L10.8249 4.29342C10.7485 4.21704 10.653 4.17884 10.5385 4.17884C10.4239 4.17884 10.3284 4.21704 10.252 4.29342L4.49992 10.1372V11.833ZM0.833252 19.1663V2.20801C0.833252 1.85662 0.970752 1.53961 1.24575 1.25697C1.52075 0.974327 1.84159 0.833008 2.20825 0.833008H17.7916C18.143 0.833008 18.46 0.974327 18.7426 1.25697C19.0253 1.53961 19.1666 1.85662 19.1666 2.20801V14.1247C19.1666 14.4761 19.0253 14.7931 18.7426 15.0757C18.46 15.3584 18.143 15.4997 17.7916 15.4997H4.49992L0.833252 19.1663ZM2.20825 15.8434L3.927 14.1247H17.7916V2.20801H2.20825V15.8434ZM2.20825 2.20801V15.8434V2.20801Z" fill="#A1A1C1"/>
</svg>
