<svg width="18" height="18" viewBox="0 0 18 18" fill="none" xmlns="http://www.w3.org/2000/svg">
<path d="M9.00016 8.97266C7.8085 8.97266 6.8335 8.59349 6.07516 7.83516C5.31683 7.07682 4.93766 6.10182 4.93766 4.91016C4.93766 3.71849 5.31683 2.74349 6.07516 1.98516C6.8335 1.22682 7.8085 0.847656 9.00016 0.847656C10.1918 0.847656 11.1668 1.22682 11.9252 1.98516C12.6835 2.74349 13.0627 3.71849 13.0627 4.91016C13.0627 6.10182 12.6835 7.07682 11.9252 7.83516C11.1668 8.59349 10.1918 8.97266 9.00016 8.97266ZM0.333496 17.6664V15.1206C0.333496 14.4345 0.505024 13.8477 0.848079 13.3602C1.19113 12.8727 1.6335 12.5025 2.17516 12.2497C3.38488 11.7081 4.54496 11.3018 5.65537 11.031C6.76579 10.7602 7.88072 10.6247 9.00016 10.6247C10.1196 10.6247 11.23 10.7647 12.3314 11.0445C13.4328 11.3244 14.5884 11.7261 15.7981 12.2497C16.3578 12.5025 16.8092 12.8727 17.1522 13.3602C17.4953 13.8477 17.6668 14.4345 17.6668 15.1206V17.6664H0.333496ZM1.9585 16.0414H16.0418V15.1206C16.0418 14.8317 15.9561 14.5563 15.7845 14.2945C15.613 14.0327 15.4009 13.8386 15.1481 13.7122C13.9925 13.1525 12.9363 12.7688 11.9793 12.5612C11.0224 12.3536 10.0293 12.2497 9.00016 12.2497C7.971 12.2497 6.96891 12.3536 5.99391 12.5612C5.01891 12.7688 3.96266 13.1525 2.82516 13.7122C2.57239 13.8386 2.36475 14.0327 2.20225 14.2945C2.03975 14.5563 1.9585 14.8317 1.9585 15.1206V16.0414ZM9.00016 7.34766C9.70433 7.34766 10.2866 7.11745 10.747 6.65703C11.2075 6.19661 11.4377 5.61432 11.4377 4.91016C11.4377 4.20599 11.2075 3.6237 10.747 3.16328C10.2866 2.70287 9.70433 2.47266 9.00016 2.47266C8.296 2.47266 7.7137 2.70287 7.25329 3.16328C6.79287 3.6237 6.56266 4.20599 6.56266 4.91016C6.56266 5.61432 6.79287 6.19661 7.25329 6.65703C7.7137 7.11745 8.296 7.34766 9.00016 7.34766Z" fill="#777E99"/>
</svg>
