<svg width="4" height="18" viewBox="0 0 4 18" fill="none" xmlns="http://www.w3.org/2000/svg">
<path d="M1.99995 17.6673C1.63884 17.6673 1.33189 17.5409 1.07912 17.2882C0.826339 17.0354 0.699951 16.7284 0.699951 16.3673C0.699951 16.0062 0.826339 15.6993 1.07912 15.4465C1.33189 15.1937 1.63884 15.0673 1.99995 15.0673C2.36106 15.0673 2.66801 15.1937 2.92078 15.4465C3.17356 15.6993 3.29995 16.0062 3.29995 16.3673C3.29995 16.7284 3.17356 17.0354 2.92078 17.2882C2.66801 17.5409 2.36106 17.6673 1.99995 17.6673ZM1.99995 10.3007C1.63884 10.3007 1.33189 10.1743 1.07912 9.92148C0.826339 9.66871 0.699951 9.36176 0.699951 9.00065C0.699951 8.63954 0.826339 8.3326 1.07912 8.07982C1.33189 7.82704 1.63884 7.70065 1.99995 7.70065C2.36106 7.70065 2.66801 7.82704 2.92078 8.07982C3.17356 8.3326 3.29995 8.63954 3.29995 9.00065C3.29995 9.36176 3.17356 9.66871 2.92078 9.92148C2.66801 10.1743 2.36106 10.3007 1.99995 10.3007ZM1.99995 2.93398C1.63884 2.93398 1.33189 2.8076 1.07912 2.55482C0.826339 2.30204 0.699951 1.9951 0.699951 1.63398C0.699951 1.27287 0.826339 0.965929 1.07912 0.713151C1.33189 0.460373 1.63884 0.333984 1.99995 0.333984C2.36106 0.333984 2.66801 0.460373 2.92078 0.713151C3.17356 0.965929 3.29995 1.27287 3.29995 1.63398C3.29995 1.9951 3.17356 2.30204 2.92078 2.55482C2.66801 2.8076 2.36106 2.93398 1.99995 2.93398Z" fill="white"/>
</svg>
