<svg width="16" height="16" viewBox="0 0 16 16" fill="none" xmlns="http://www.w3.org/2000/svg">
<path d="M3.9875 8.9375C4.25 8.9375 4.47187 8.84688 4.65312 8.66562C4.83437 8.48438 4.925 8.2625 4.925 8C4.925 7.7375 4.83437 7.51562 4.65312 7.33438C4.47187 7.15313 4.25 7.0625 3.9875 7.0625C3.725 7.0625 3.50312 7.15313 3.32187 7.33438C3.14062 7.51562 3.05 7.7375 3.05 8C3.05 8.2625 3.14062 8.48438 3.32187 8.66562C3.50312 8.84688 3.725 8.9375 3.9875 8.9375ZM8 8.9375C8.2625 8.9375 8.48438 8.84688 8.66562 8.66562C8.84688 8.48438 8.9375 8.2625 8.9375 8C8.9375 7.7375 8.84688 7.51562 8.66562 7.33438C8.48438 7.15313 8.2625 7.0625 8 7.0625C7.7375 7.0625 7.51562 7.15313 7.33438 7.33438C7.15313 7.51562 7.0625 7.7375 7.0625 8C7.0625 8.2625 7.15313 8.48438 7.33438 8.66562C7.51562 8.84688 7.7375 8.9375 8 8.9375ZM11.9938 8.9375C12.2563 8.9375 12.4781 8.84688 12.6594 8.66562C12.8406 8.48438 12.9313 8.2625 12.9313 8C12.9313 7.7375 12.8406 7.51562 12.6594 7.33438C12.4781 7.15313 12.2563 7.0625 11.9938 7.0625C11.7313 7.0625 11.5094 7.15313 11.3281 7.33438C11.1469 7.51562 11.0563 7.7375 11.0563 8C11.0563 8.2625 11.1469 8.48438 11.3281 8.66562C11.5094 8.84688 11.7313 8.9375 11.9938 8.9375ZM8 15.5C6.975 15.5 6.00625 15.3031 5.09375 14.9094C4.18125 14.5156 3.38438 13.9781 2.70312 13.2969C2.02188 12.6156 1.48437 11.8188 1.09062 10.9062C0.696875 9.99375 0.5 9.01875 0.5 7.98125C0.5 6.95625 0.696875 5.9875 1.09062 5.075C1.48437 4.1625 2.02188 3.36875 2.70312 2.69375C3.38438 2.01875 4.18125 1.48437 5.09375 1.09062C6.00625 0.696875 6.98125 0.5 8.01875 0.5C9.04375 0.5 10.0125 0.696875 10.925 1.09062C11.8375 1.48437 12.6313 2.01875 13.3063 2.69375C13.9813 3.36875 14.5156 4.1625 14.9094 5.075C15.3031 5.9875 15.5 6.9625 15.5 8C15.5 9.025 15.3031 9.99375 14.9094 10.9062C14.5156 11.8188 13.9813 12.6156 13.3063 13.2969C12.6313 13.9781 11.8375 14.5156 10.925 14.9094C10.0125 15.3031 9.0375 15.5 8 15.5ZM8.01875 14.375C9.78125 14.375 11.2812 13.7531 12.5187 12.5094C13.7562 11.2656 14.375 9.75625 14.375 7.98125C14.375 6.21875 13.7562 4.71875 12.5187 3.48125C11.2812 2.24375 9.775 1.625 8 1.625C6.2375 1.625 4.73438 2.24375 3.49063 3.48125C2.24688 4.71875 1.625 6.225 1.625 8C1.625 9.7625 2.24688 11.2656 3.49063 12.5094C4.73438 13.7531 6.24375 14.375 8.01875 14.375Z" fill="#A1A1C1"/>
</svg>
