<svg width="17" height="22" viewBox="0 0 17 22" fill="none" xmlns="http://www.w3.org/2000/svg">
<path d="M6.45833 21.8337C4.81528 21.8337 3.41146 21.2694 2.24688 20.1409C1.08229 19.0125 0.5 17.6267 0.5 15.9837V4.33783C0.5 3.18227 0.910764 2.19824 1.73229 1.38574C2.55382 0.573242 3.54236 0.166992 4.69792 0.166992C5.87153 0.166992 6.86458 0.573242 7.67708 1.38574C8.48958 2.19824 8.89583 3.1913 8.89583 4.36491V13.4107H7.8125V4.33783C7.8125 3.47116 7.51007 2.73991 6.90521 2.14408C6.30035 1.54824 5.56458 1.25033 4.69792 1.25033C3.83125 1.25033 3.09549 1.54824 2.49063 2.14408C1.88576 2.73991 1.58333 3.47116 1.58333 4.33783V16.0378C1.58333 17.3559 2.06181 18.4708 3.01875 19.3826C3.97569 20.2944 5.12222 20.7503 6.45833 20.7503C7.14444 20.7503 7.78993 20.6194 8.39479 20.3576C8.99965 20.0958 9.52778 19.7392 9.97917 19.2878V20.6962C9.47361 21.0573 8.92743 21.3371 8.34063 21.5357C7.75382 21.7344 7.12639 21.8337 6.45833 21.8337ZM11.6042 20.4795V17.2295H8.35417V15.6045H11.6042V12.3545H13.2292V15.6045H16.4792V17.2295H13.2292V20.4795H11.6042ZM6.45833 16.417V17.5003C5.77222 17.5003 5.19444 17.243 4.725 16.7284C4.25556 16.2139 4.02083 15.6045 4.02083 14.9003V4.28366H5.10417V14.9816C5.10417 15.3788 5.23507 15.7173 5.49688 15.9972C5.75868 16.2771 6.07917 16.417 6.45833 16.417ZM11.3333 9.99824V4.28366H12.4167V9.99824H11.3333Z" fill="#A1A1C1"/>
</svg>
