<svg width="20" height="20" viewBox="0 0 20 20" fill="none" xmlns="http://www.w3.org/2000/svg">
<path d="M9.99992 12.9559L13.9645 8.99134L12.9791 8.02884L9.99992 11.008L7.02075 8.02884L6.03533 8.99134L9.99992 12.9559ZM9.99992 19.1663C8.74714 19.1663 7.56311 18.9257 6.44783 18.4445C5.33256 17.9632 4.3586 17.3063 3.52596 16.4736C2.69332 15.641 2.03638 14.667 1.55513 13.5518C1.07388 12.4365 0.833252 11.2524 0.833252 9.99967C0.833252 8.73162 1.07388 7.53995 1.55513 6.42467C2.03638 5.3094 2.69332 4.33926 3.52596 3.51426C4.3586 2.68926 5.33256 2.03613 6.44783 1.55488C7.56311 1.07363 8.74714 0.833008 9.99992 0.833008C11.268 0.833008 12.4596 1.07363 13.5749 1.55488C14.6902 2.03613 15.6603 2.68926 16.4853 3.51426C17.3103 4.33926 17.9635 5.3094 18.4447 6.42467C18.926 7.53995 19.1666 8.73162 19.1666 9.99967C19.1666 11.2524 18.926 12.4365 18.4447 13.5518C17.9635 14.667 17.3103 15.641 16.4853 16.4736C15.6603 17.3063 14.6902 17.9632 13.5749 18.4445C12.4596 18.9257 11.268 19.1663 9.99992 19.1663ZM9.99992 17.7913C12.1694 17.7913 14.0103 17.0313 15.5228 15.5111C17.0353 13.991 17.7916 12.1538 17.7916 9.99967C17.7916 7.83023 17.0353 5.98926 15.5228 4.47676C14.0103 2.96426 12.1694 2.20801 9.99992 2.20801C7.84575 2.20801 6.0086 2.96426 4.48846 4.47676C2.96832 5.98926 2.20825 7.83023 2.20825 9.99967C2.20825 12.1538 2.96832 13.991 4.48846 15.5111C6.0086 17.0313 7.84575 17.7913 9.99992 17.7913Z" fill="#777E99"/>
</svg>
