<svg width="16" height="20" viewBox="0 0 16 20" fill="none" xmlns="http://www.w3.org/2000/svg">
<path d="M8.00008 7.70801C6.99175 7.70801 6.16675 7.38717 5.52508 6.74551C4.88342 6.10384 4.56258 5.27884 4.56258 4.27051C4.56258 3.26217 4.88342 2.43717 5.52508 1.79551C6.16675 1.15384 6.99175 0.833008 8.00008 0.833008C9.00842 0.833008 9.83342 1.15384 10.4751 1.79551C11.1167 2.43717 11.4376 3.26217 11.4376 4.27051C11.4376 5.27884 11.1167 6.10384 10.4751 6.74551C9.83342 7.38717 9.00842 7.70801 8.00008 7.70801ZM8.00008 6.33301C8.59592 6.33301 9.08862 6.13822 9.47821 5.74863C9.86779 5.35905 10.0626 4.86634 10.0626 4.27051C10.0626 3.67467 9.86779 3.18197 9.47821 2.79238C9.08862 2.4028 8.59592 2.20801 8.00008 2.20801C7.40425 2.20801 6.91154 2.4028 6.52196 2.79238C6.13237 3.18197 5.93758 3.67467 5.93758 4.27051C5.93758 4.86634 6.13237 5.35905 6.52196 5.74863C6.91154 6.13822 7.40425 6.33301 8.00008 6.33301ZM0.666748 19.1663V13.1163C0.666748 12.5358 0.811887 12.0393 1.10216 11.6268C1.39244 11.2143 1.76675 10.9011 2.22508 10.6872C3.00425 10.3358 3.8789 10.0188 4.84904 9.73613C5.81918 9.45349 6.86953 9.31217 8.00008 9.31217C9.13064 9.31217 10.1772 9.45349 11.1397 9.73613C12.1022 10.0188 12.973 10.3358 13.7522 10.6872C14.2258 10.9011 14.6077 11.2143 14.898 11.6268C15.1883 12.0393 15.3334 12.5358 15.3334 13.1163V17.7913C15.3334 18.158 15.1959 18.4788 14.9209 18.7538C14.6459 19.0288 14.3251 19.1663 13.9584 19.1663H5.93758C5.29592 19.1663 4.75355 18.9448 4.3105 18.5018C3.86744 18.0587 3.64592 17.5163 3.64592 16.8747C3.64592 16.233 3.86744 15.6906 4.3105 15.2476C4.75355 14.8045 5.29592 14.583 5.93758 14.583H8.64175L10.2917 10.9163C9.89453 10.84 9.50112 10.7827 9.11154 10.7445C8.72196 10.7063 8.35147 10.6872 8.00008 10.6872C6.90008 10.6872 5.91849 10.8132 5.05529 11.0653C4.1921 11.3174 3.43203 11.6038 2.77508 11.9247C2.56119 12.0316 2.3855 12.192 2.248 12.4059C2.1105 12.6198 2.04175 12.8566 2.04175 13.1163V19.1663H0.666748ZM5.93758 17.7913H7.17508L8.023 15.958H5.93758C5.69314 15.958 5.47925 16.0497 5.29592 16.233C5.11258 16.4163 5.02092 16.6302 5.02092 16.8747C5.02092 17.1191 5.11258 17.333 5.29592 17.5163C5.47925 17.6997 5.69314 17.7913 5.93758 17.7913ZM8.68758 17.7913H13.9584V13.1163C13.9584 12.8566 13.8858 12.6198 13.7407 12.4059C13.5956 12.192 13.4161 12.0316 13.2022 11.9247C13.0188 11.833 12.7973 11.7337 12.5376 11.6268C12.2779 11.5198 11.9799 11.4052 11.6438 11.283L8.68758 17.7913Z" fill="#777E99"/>
</svg>
