<svg width="22" height="18" viewBox="0 0 22 18" fill="none" xmlns="http://www.w3.org/2000/svg">
<path d="M0 11.6354V6.36458H1.375V11.6354H0ZM2.75 13.6521V4.34792H4.125V13.6521H2.75ZM20.625 11.6354V6.36458H22V11.6354H20.625ZM17.875 13.6521V4.34792H19.25V13.6521H17.875ZM6.875 17.25C6.49306 17.25 6.1684 17.1163 5.90104 16.849C5.63368 16.5816 5.5 16.2569 5.5 15.875V2.125C5.5 1.74306 5.63368 1.4184 5.90104 1.15104C6.1684 0.883681 6.49306 0.75 6.875 0.75H15.125C15.5069 0.75 15.8316 0.883681 16.099 1.15104C16.3663 1.4184 16.5 1.74306 16.5 2.125V15.875C16.5 16.2569 16.3663 16.5816 16.099 16.849C15.8316 17.1163 15.5069 17.25 15.125 17.25H6.875ZM6.875 15.875H15.125V2.125H6.875V15.875ZM6.875 15.875V2.125V15.875Z" fill="#777E99"/>
</svg>
