<svg width="14" height="18" viewBox="0 0 14 18" fill="none" xmlns="http://www.w3.org/2000/svg">
<path d="M0.333496 14.8337V13.5837H2.0835V7.20866C2.0835 6.04199 2.42725 5.0038 3.11475 4.09408C3.80225 3.18435 4.7085 2.61144 5.8335 2.37533V1.77116C5.8335 1.45171 5.94808 1.18783 6.17725 0.979492C6.40641 0.771159 6.68072 0.666992 7.00016 0.666992C7.31961 0.666992 7.59391 0.771159 7.82308 0.979492C8.05225 1.18783 8.16683 1.45171 8.16683 1.77116V2.37533C9.29183 2.61144 10.2016 3.18435 10.896 4.09408C11.5904 5.0038 11.9377 6.04199 11.9377 7.20866V13.5837H13.6668V14.8337H0.333496ZM7.00016 17.3337C6.55572 17.3337 6.16683 17.1705 5.8335 16.8441C5.50016 16.5177 5.3335 16.1253 5.3335 15.667H8.66683C8.66683 16.1253 8.50364 16.5177 8.17725 16.8441C7.85086 17.1705 7.4585 17.3337 7.00016 17.3337ZM3.3335 13.5837H10.6877V7.20866C10.6877 6.18088 10.3335 5.30588 9.62516 4.58366C8.91683 3.86144 8.04877 3.50033 7.021 3.50033C5.99322 3.50033 5.12169 3.86144 4.40641 4.58366C3.69113 5.30588 3.3335 6.18088 3.3335 7.20866V13.5837Z" fill="#A1A1C1"/>
</svg>
