<svg width="22" height="15" viewBox="0 0 22 15" fill="none" xmlns="http://www.w3.org/2000/svg">
<path d="M0.166748 14.5833V12.9583H11.0001V14.5833H0.166748ZM0.166748 8.89583V7.27083H5.58341V8.89583H0.166748ZM0.166748 3.20833V1.58333H5.58341V3.20833H0.166748ZM20.6959 14.5833L16.3626 10.25C15.8931 10.6111 15.3876 10.8819 14.8459 11.0625C14.3042 11.2431 13.7445 11.3333 13.1667 11.3333C11.6681 11.3333 10.3907 10.8052 9.33446 9.74896C8.2782 8.69271 7.75008 7.41528 7.75008 5.91667C7.75008 4.41806 8.2782 3.14062 9.33446 2.08438C10.3907 1.02813 11.6681 0.5 13.1667 0.5C14.6654 0.5 15.9428 1.02813 16.999 2.08438C18.0553 3.14062 18.5834 4.41806 18.5834 5.91667C18.5834 6.49444 18.4931 7.05417 18.3126 7.59583C18.132 8.1375 17.8612 8.64305 17.5001 9.1125L21.8334 13.4458L20.6959 14.5833ZM13.1667 9.70833C14.214 9.70833 15.1077 9.33819 15.848 8.59792C16.5883 7.85764 16.9584 6.96389 16.9584 5.91667C16.9584 4.86944 16.5883 3.97569 15.848 3.23542C15.1077 2.49514 14.214 2.125 13.1667 2.125C12.1195 2.125 11.2258 2.49514 10.4855 3.23542C9.74522 3.97569 9.37508 4.86944 9.37508 5.91667C9.37508 6.96389 9.74522 7.85764 10.4855 8.59792C11.2258 9.33819 12.1195 9.70833 13.1667 9.70833Z" fill="white"/>
</svg>
