<svg width="18" height="22" viewBox="0 0 18 22" fill="none" xmlns="http://www.w3.org/2000/svg">
<path d="M7.75409 17.0931L13.9562 10.891L12.8999 9.83477L7.75409 14.9806L4.9645 12.191L3.90825 13.2473L7.75409 17.0931ZM1.95825 21.8327C1.52492 21.8327 1.14575 21.6702 0.820752 21.3452C0.495752 21.0202 0.333252 20.641 0.333252 20.2077V1.79102C0.333252 1.35768 0.495752 0.978516 0.820752 0.653516C1.14575 0.328516 1.52492 0.166016 1.95825 0.166016H11.7353L17.6666 6.09727V20.2077C17.6666 20.641 17.5041 21.0202 17.1791 21.3452C16.8541 21.6702 16.4749 21.8327 16.0416 21.8327H1.95825ZM10.9228 6.82851V1.79102H1.95825V20.2077H16.0416V6.82851H10.9228ZM1.95825 1.79102V6.82851V1.79102V20.2077V1.79102Z" fill="white"/>
</svg>
