<svg width="20" height="20" viewBox="0 0 20 20" fill="none" xmlns="http://www.w3.org/2000/svg">
<path d="M7.89158 19.1663L7.43325 16.2788C7.14297 16.1719 6.83742 16.0268 6.51658 15.8434C6.19575 15.6601 5.91311 15.4691 5.66867 15.2705L2.9645 16.508L0.833252 12.7497L3.30825 10.9393C3.2777 10.8018 3.2586 10.6452 3.25096 10.4695C3.24332 10.2938 3.2395 10.1372 3.2395 9.99967C3.2395 9.86217 3.24332 9.70558 3.25096 9.52988C3.2586 9.35419 3.2777 9.19759 3.30825 9.06009L0.833252 7.24967L2.9645 3.49134L5.66867 4.72884C5.91311 4.53023 6.19575 4.33926 6.51658 4.15592C6.83742 3.97259 7.14297 3.83509 7.43325 3.74342L7.89158 0.833008H12.1083L12.5666 3.72051C12.8569 3.82745 13.1662 3.96877 13.4947 4.14447C13.8232 4.32016 14.102 4.51495 14.3312 4.72884L17.0353 3.49134L19.1666 7.24967L16.6916 9.01426C16.7221 9.16703 16.7412 9.33127 16.7489 9.50696C16.7565 9.68266 16.7603 9.8469 16.7603 9.99967C16.7603 10.1525 16.7565 10.3129 16.7489 10.4809C16.7412 10.649 16.7221 10.8094 16.6916 10.9622L19.1666 12.7497L17.0353 16.508L14.3312 15.2705C14.0867 15.4691 13.8079 15.6639 13.4947 15.8549C13.1815 16.0459 12.8721 16.1872 12.5666 16.2788L12.1083 19.1663H7.89158ZM9.99992 12.9788C10.8249 12.9788 11.5277 12.6886 12.1083 12.108C12.6888 11.5275 12.9791 10.8247 12.9791 9.99967C12.9791 9.17467 12.6888 8.4719 12.1083 7.89134C11.5277 7.31078 10.8249 7.02051 9.99992 7.02051C9.17492 7.02051 8.47214 7.31078 7.89158 7.89134C7.31103 8.4719 7.02075 9.17467 7.02075 9.99967C7.02075 10.8247 7.31103 11.5275 7.89158 12.108C8.47214 12.6886 9.17492 12.9788 9.99992 12.9788ZM9.99992 11.6038C9.55686 11.6038 9.17874 11.4472 8.86554 11.134C8.55235 10.8209 8.39575 10.4427 8.39575 9.99967C8.39575 9.55662 8.55235 9.17849 8.86554 8.8653C9.17874 8.5521 9.55686 8.39551 9.99992 8.39551C10.443 8.39551 10.8211 8.5521 11.1343 8.8653C11.4475 9.17849 11.6041 9.55662 11.6041 9.99967C11.6041 10.4427 11.4475 10.8209 11.1343 11.134C10.8211 11.4472 10.443 11.6038 9.99992 11.6038ZM8.99158 17.7913H11.0083L11.3291 15.2247C11.8333 15.1025 12.3107 14.9115 12.7614 14.6518C13.2121 14.392 13.6208 14.0788 13.9874 13.7122L16.4166 14.7663L17.3332 13.1163L15.1791 11.5351C15.2402 11.2754 15.2898 11.0195 15.328 10.7674C15.3662 10.5153 15.3853 10.2594 15.3853 9.99967C15.3853 9.73995 15.3701 9.48405 15.3395 9.23197C15.3089 8.97988 15.2555 8.72398 15.1791 8.46426L17.3332 6.88301L16.4166 5.23301L13.9874 6.28717C13.636 5.88995 13.2388 5.55766 12.7957 5.2903C12.3527 5.02294 11.8638 4.85106 11.3291 4.77467L11.0083 2.20801H8.99158L8.67075 4.77467C8.15131 4.88162 7.66624 5.06495 7.21554 5.32467C6.76485 5.5844 6.36381 5.90523 6.01242 6.28717L3.58325 5.23301L2.66658 6.88301L4.82075 8.46426C4.75964 8.72398 4.70999 8.97988 4.67179 9.23197C4.6336 9.48405 4.6145 9.73995 4.6145 9.99967C4.6145 10.2594 4.6336 10.5153 4.67179 10.7674C4.70999 11.0195 4.75964 11.2754 4.82075 11.5351L2.66658 13.1163L3.58325 14.7663L6.01242 13.7122C6.37908 14.0788 6.78777 14.392 7.23846 14.6518C7.68915 14.9115 8.16658 15.1025 8.67075 15.2247L8.99158 17.7913Z" fill="#A1A1C1"/>
</svg>
