<svg width="18" height="18" viewBox="0 0 18 18" fill="none" xmlns="http://www.w3.org/2000/svg">
<path d="M12.0623 13.0212L12.9998 12.0837L9.68734 8.75033V4.56283H8.43734V9.25033L12.0623 13.0212ZM8.99984 17.3337C7.86095 17.3337 6.78456 17.1149 5.77067 16.6774C4.75678 16.2399 3.87137 15.6427 3.11442 14.8857C2.35748 14.1288 1.76025 13.2434 1.32275 12.2295C0.885254 11.2156 0.666504 10.1392 0.666504 9.00033C0.666504 7.86144 0.885254 6.78505 1.32275 5.77116C1.76025 4.75727 2.35748 3.87185 3.11442 3.11491C3.87137 2.35796 4.75678 1.76074 5.77067 1.32324C6.78456 0.885742 7.86095 0.666992 8.99984 0.666992C10.1387 0.666992 11.2151 0.885742 12.229 1.32324C13.2429 1.76074 14.1283 2.35796 14.8853 3.11491C15.6422 3.87185 16.2394 4.75727 16.6769 5.77116C17.1144 6.78505 17.3332 7.86144 17.3332 9.00033C17.3332 10.1392 17.1144 11.2156 16.6769 12.2295C16.2394 13.2434 15.6422 14.1288 14.8853 14.8857C14.1283 15.6427 13.2429 16.2399 12.229 16.6774C11.2151 17.1149 10.1387 17.3337 8.99984 17.3337ZM8.99984 16.0837C10.9443 16.0837 12.6109 15.3892 13.9998 14.0003C15.3887 12.6114 16.0832 10.9448 16.0832 9.00033C16.0832 7.05588 15.3887 5.38921 13.9998 4.00033C12.6109 2.61144 10.9443 1.91699 8.99984 1.91699C7.05539 1.91699 5.38873 2.61144 3.99984 4.00033C2.61095 5.38921 1.9165 7.05588 1.9165 9.00033C1.9165 10.9448 2.61095 12.6114 3.99984 14.0003C5.38873 15.3892 7.05539 16.0837 8.99984 16.0837Z" fill="#A1A1C1"/>
</svg>
