<svg width="16" height="20" viewBox="0 0 16 20" fill="none" xmlns="http://www.w3.org/2000/svg">
<path d="M4.33342 16.1872H11.6667V14.8122H4.33342V16.1872ZM4.33342 13.4372H11.6667V12.0622H4.33342V13.4372ZM8.00008 9.90801C8.97786 9.0219 9.79522 8.27328 10.4522 7.66217C11.1091 7.05106 11.4376 6.36356 11.4376 5.59967C11.4376 5.11079 11.2619 4.69065 10.9105 4.33926C10.5591 3.98787 10.139 3.81217 9.65008 3.81217C9.26814 3.81217 8.95494 3.88474 8.7105 4.02988C8.46605 4.17502 8.22925 4.39273 8.00008 4.68301C7.77092 4.39273 7.53411 4.17502 7.28967 4.02988C7.04522 3.88474 6.73203 3.81217 6.35008 3.81217C5.86119 3.81217 5.44105 3.98787 5.08967 4.33926C4.73828 4.69065 4.56258 5.11079 4.56258 5.59967C4.56258 6.36356 4.8796 7.03961 5.51362 7.6278C6.14765 8.21599 6.97647 8.97606 8.00008 9.90801ZM13.9584 19.1663H2.04175C1.67508 19.1663 1.35425 19.0288 1.07925 18.7538C0.804248 18.4788 0.666748 18.158 0.666748 17.7913V2.20801C0.666748 1.84134 0.804248 1.52051 1.07925 1.24551C1.35425 0.970508 1.67508 0.833008 2.04175 0.833008H13.9584C14.3251 0.833008 14.6459 0.970508 14.9209 1.24551C15.1959 1.52051 15.3334 1.84134 15.3334 2.20801V17.7913C15.3334 18.158 15.1959 18.4788 14.9209 18.7538C14.6459 19.0288 14.3251 19.1663 13.9584 19.1663ZM2.04175 17.7913H13.9584V2.20801H2.04175V17.7913ZM2.04175 17.7913V2.20801V17.7913Z" fill="#777E99"/>
</svg>
