<svg width="20" height="19" viewBox="0 0 20 19" fill="none" xmlns="http://www.w3.org/2000/svg">
<path d="M2.20825 18.2497C1.84159 18.2497 1.52075 18.1122 1.24575 17.8372C0.970752 17.5622 0.833252 17.2413 0.833252 16.8747V5.87467C0.833252 5.50801 0.970752 5.18717 1.24575 4.91217C1.52075 4.63717 1.84159 4.49967 2.20825 4.49967H6.33325V2.20801C6.33325 1.84134 6.47075 1.52051 6.74575 1.24551C7.02075 0.970508 7.34159 0.833008 7.70825 0.833008H12.2916C12.6583 0.833008 12.9791 0.970508 13.2541 1.24551C13.5291 1.52051 13.6666 1.84134 13.6666 2.20801V4.49967H17.7916C18.1583 4.49967 18.4791 4.63717 18.7541 4.91217C19.0291 5.18717 19.1666 5.50801 19.1666 5.87467V16.8747C19.1666 17.2413 19.0291 17.5622 18.7541 17.8372C18.4791 18.1122 18.1583 18.2497 17.7916 18.2497H2.20825ZM2.20825 16.8747H17.7916V5.87467H2.20825V16.8747ZM7.70825 4.49967H12.2916V2.20801H7.70825V4.49967ZM2.20825 16.8747V5.87467V16.8747Z" fill="#777E99"/>
</svg>
